<svg width="281" height="96" viewBox="0 0 281 96" fill="none" xmlns="http://www.w3.org/2000/svg">
<path d="M86.6933 59.015C67.0642 71.6694 34.6171 57.8781 38.9961 38.088C42.8353 20.7379 63.4457 25.7243 68.1336 28.0657C72.8216 30.4071 69.9844 17.9708 59.1133 14.2381C44.3876 9.18152 26.3626 10.2536 20.6649 35.6531C16.7712 53.011 24.3976 77.3463 53.6804 77.6708C82.9632 77.9952 86.6933 59.015 86.6933 59.015Z" fill="#226699"/>
<path d="M93.4164 62.9476C93.4164 57.3771 86.2677 56.8891 83.0334 60.0429C75.2616 67.6199 63.8195 70.4571 48.5149 67.4694C21.9083 62.2779 21.6721 31.0923 39.8632 22.1967C49.7037 17.3841 61.3795 23.0818 65.8183 26.4926C69.6807 29.4596 77.0683 33.3974 76.6815 28.4447C75.8561 17.9007 55.1912 -4.67989 27.5022 9.59681C-0.184267 23.8735 3.18135e-05 56.0947 3.18135e-05 61.9352V80.7545C3.18135e-05 86.4886 4.70875 91 10.4428 91H83.1242C88.8583 91 93.4476 86.4886 93.4476 80.7545C93.4476 80.7545 93.4372 62.9631 93.4164 62.9476Z" fill="#55ACEE"/>
<path d="M107.887 14.8409V11.0909H134.069V14.8409H123.092V46H118.864V14.8409H107.887ZM144.19 46.6136C142.53 46.6136 141.025 46.3011 139.673 45.6761C138.32 45.0398 137.246 44.125 136.451 42.9318C135.655 41.7273 135.258 40.2727 135.258 38.5682C135.258 37.0682 135.553 35.8523 136.144 34.9205C136.735 33.9773 137.525 33.2386 138.513 32.7045C139.502 32.1705 140.593 31.7727 141.786 31.5114C142.991 31.2386 144.201 31.0227 145.417 30.8636C147.008 30.6591 148.298 30.5057 149.286 30.4034C150.286 30.2898 151.013 30.1023 151.468 29.8409C151.934 29.5795 152.167 29.125 152.167 28.4773V28.3409C152.167 26.6591 151.707 25.3523 150.786 24.4205C149.877 23.4886 148.496 23.0227 146.644 23.0227C144.724 23.0227 143.218 23.4432 142.127 24.2841C141.036 25.125 140.269 26.0227 139.826 26.9773L136.008 25.6136C136.69 24.0227 137.599 22.7841 138.735 21.8977C139.883 21 141.133 20.375 142.485 20.0227C143.849 19.6591 145.19 19.4773 146.508 19.4773C147.349 19.4773 148.315 19.5795 149.405 19.7841C150.508 19.9773 151.57 20.3807 152.593 20.9943C153.627 21.608 154.485 22.5341 155.167 23.7727C155.849 25.0114 156.19 26.6705 156.19 28.75V46H152.167V42.4545H151.962C151.69 43.0227 151.235 43.6307 150.599 44.2784C149.962 44.9261 149.116 45.4773 148.059 45.9318C147.002 46.3864 145.712 46.6136 144.19 46.6136ZM144.803 43C146.394 43 147.735 42.6875 148.826 42.0625C149.928 41.4375 150.758 40.6307 151.315 39.642C151.883 38.6534 152.167 37.6136 152.167 36.5227V32.8409C151.996 33.0455 151.621 33.233 151.042 33.4034C150.474 33.5625 149.815 33.7045 149.065 33.8295C148.326 33.9432 147.604 34.0455 146.9 34.1364C146.207 34.2159 145.644 34.2841 145.212 34.3409C144.167 34.4773 143.19 34.6989 142.28 35.0057C141.383 35.3011 140.655 35.75 140.099 36.3523C139.553 36.9432 139.28 37.75 139.28 38.7727C139.28 40.1705 139.798 41.2273 140.832 41.9432C141.877 42.6477 143.201 43 144.803 43ZM182.077 25.6818L178.464 26.7045C178.236 26.1023 177.901 25.517 177.458 24.9489C177.026 24.3693 176.435 23.892 175.685 23.517C174.935 23.142 173.975 22.9545 172.805 22.9545C171.202 22.9545 169.867 23.3239 168.799 24.0625C167.742 24.7898 167.214 25.7159 167.214 26.8409C167.214 27.8409 167.577 28.6307 168.305 29.2102C169.032 29.7898 170.168 30.2727 171.714 30.6591L175.6 31.6136C177.941 32.1818 179.685 33.0511 180.833 34.2216C181.981 35.3807 182.555 36.875 182.555 38.7045C182.555 40.2045 182.123 41.5455 181.259 42.7273C180.407 43.9091 179.214 44.8409 177.68 45.5227C176.146 46.2045 174.361 46.5455 172.327 46.5455C169.657 46.5455 167.447 45.9659 165.697 44.8068C163.947 43.6477 162.839 41.9545 162.373 39.7273L166.191 38.7727C166.555 40.1818 167.242 41.2386 168.253 41.9432C169.276 42.6477 170.611 43 172.259 43C174.134 43 175.623 42.6023 176.725 41.8068C177.839 41 178.396 40.0341 178.396 38.9091C178.396 38 178.077 37.2386 177.441 36.625C176.805 36 175.827 35.5341 174.509 35.2273L170.146 34.2045C167.748 33.6364 165.986 32.7557 164.861 31.5625C163.748 30.358 163.191 28.8523 163.191 27.0455C163.191 25.5682 163.606 24.2614 164.435 23.125C165.276 21.9886 166.418 21.0966 167.861 20.4489C169.316 19.8011 170.964 19.4773 172.805 19.4773C175.396 19.4773 177.43 20.0455 178.907 21.1818C180.396 22.3182 181.452 23.8182 182.077 25.6818ZM192.36 36.4545L192.292 31.4773H193.11L204.565 19.8182H209.542L197.337 32.1591H196.996L192.36 36.4545ZM188.61 46V11.0909H192.633V46H188.61ZM205.246 46L195.019 33.0455L197.883 30.25L210.36 46H205.246Z" fill="#F4F4F8"/>
<path d="M112.53 82.2477C112.361 81.8753 112.191 81.5198 112.022 81.1813C111.853 80.8427 111.683 80.538 111.514 80.2672C111.108 79.4547 110.752 78.7268 110.448 78.0836C110.143 77.4404 109.855 76.6956 109.584 75.8492C109.686 75.2737 109.855 74.3089 110.092 72.9547C110.363 71.6005 110.668 70.1279 111.006 68.5367C111.345 66.9117 111.7 65.2698 112.073 63.611C112.479 61.9521 112.885 60.5302 113.291 59.3453C113.664 58.2959 114.07 57.1787 114.51 55.9938C114.984 54.8089 115.492 53.7255 116.034 52.7438C116.609 51.7281 117.219 50.8649 117.862 50.1539C118.505 49.443 119.199 49.0198 119.944 48.8844C120.147 49.1552 120.367 49.3753 120.604 49.5446C120.841 49.68 121.061 49.7815 121.264 49.8492C121.84 50.6617 122.398 51.3558 122.94 51.9313C123.482 52.4729 124.125 53.0146 124.87 53.5563C124.666 54.5719 124.362 55.706 123.956 56.9586C123.583 58.1774 123.177 59.413 122.737 60.6656C122.331 61.9183 121.924 63.137 121.518 64.3219C121.112 65.4729 120.79 66.4716 120.553 67.318C120.35 67.9951 120.147 68.7737 119.944 69.6539C119.775 70.3987 119.588 71.2959 119.385 72.3453C119.216 73.3948 119.047 74.5459 118.877 75.7985C119.351 75.663 119.876 75.3922 120.452 74.986C121.061 74.5797 121.62 74.1565 122.127 73.7164C122.737 73.2086 123.329 72.667 123.905 72.0914C124.683 71.3128 125.344 70.6018 125.885 69.9586C126.427 69.3154 126.918 68.6552 127.358 67.9781C127.832 67.2672 128.306 66.5055 128.78 65.693C129.288 64.8466 129.88 63.8479 130.557 62.6969C131.166 61.7151 131.793 60.6656 132.436 59.5485C133.113 58.4313 133.79 57.3649 134.467 56.3492C135.144 55.3336 135.805 54.4026 136.448 53.5563C137.091 52.6761 137.683 51.999 138.225 51.525C138.597 51.8974 139.021 52.2867 139.495 52.693C140.002 53.0992 140.544 53.387 141.12 53.5563C141.357 53.9287 141.577 54.2672 141.78 54.5719C142.017 54.8427 142.237 55.1136 142.44 55.3844C142.711 55.7568 142.948 56.0953 143.151 56.4C143.388 56.7047 143.591 57.0433 143.76 57.4156C143.726 57.6865 143.659 58.042 143.557 58.4821C143.489 58.9222 143.405 59.413 143.303 59.9547C143.202 60.4625 143.083 60.9873 142.948 61.5289C142.846 62.0706 142.745 62.5953 142.643 63.1031C142.305 64.6266 142.051 65.7776 141.881 66.5563C141.712 67.3349 141.594 67.9443 141.526 68.3844C141.458 68.8245 141.407 69.1969 141.374 69.5016C141.374 69.8063 141.374 70.2295 141.374 70.7711C141.374 71.1774 141.407 71.5836 141.475 71.9899C141.543 72.3623 141.611 72.7516 141.678 73.1578C141.78 73.5302 141.949 73.8857 142.186 74.2242L144.624 72.3453C145.301 71.8375 145.944 71.1266 146.553 70.2125C147.196 69.2646 147.806 68.1982 148.381 67.0133C148.991 65.7946 149.583 64.4912 150.159 63.1031C150.734 61.6813 151.31 60.2255 151.885 58.736C152.291 57.6526 152.698 56.5862 153.104 55.5367C153.544 54.4534 153.984 53.4378 154.424 52.4899C154.864 51.5081 155.288 50.6279 155.694 49.8492C156.134 49.0367 156.557 48.3597 156.963 47.818C157.877 48.3935 158.656 48.969 159.299 49.5446C159.976 50.1201 160.552 50.7633 161.026 51.4742C161.534 52.1513 161.923 52.9469 162.194 53.861C162.499 54.7412 162.719 55.7906 162.854 57.0094C162.109 58.4313 161.415 59.887 160.772 61.3766C160.129 62.8662 159.486 64.3727 158.842 65.8961C158.03 67.8597 157.183 69.8232 156.303 71.7867C155.457 73.7164 154.509 75.5615 153.459 77.3219C152.41 79.0823 151.225 80.7073 149.905 82.1969C148.618 83.6526 147.129 84.8883 145.436 85.9039C144.962 85.8024 144.556 85.7516 144.217 85.7516C143.845 85.7516 143.523 85.8024 143.252 85.9039C143.015 86.0055 142.795 86.1409 142.592 86.3102C141.204 85.667 140.087 84.719 139.241 83.4664C138.394 82.18 137.565 80.7581 136.752 79.2008C136.651 78.9638 136.532 78.7438 136.397 78.5406C136.295 78.3037 136.177 78.0667 136.041 77.8297L135.178 76.2555L134.67 75.2906L133.959 75.9508L132.893 76.9156L132.284 77.525C131.234 78.5068 130.168 79.4716 129.084 80.4196C128.001 81.3336 126.867 82.18 125.682 82.9586C124.497 83.7034 123.228 84.3128 121.874 84.7867C120.553 85.2607 119.131 85.5146 117.608 85.5485C117.337 85.413 117.083 85.2946 116.846 85.193C116.643 85.0914 116.44 84.9899 116.237 84.8883C115.458 84.5159 114.815 84.1604 114.307 83.8219C113.799 83.4834 113.207 82.9586 112.53 82.2477ZM184.54 81.5875C184.336 82.163 184.032 82.7555 183.626 83.3649C183.253 83.9404 182.796 84.4651 182.254 84.9391C181.747 85.3792 181.171 85.7516 180.528 86.0563C179.885 86.361 179.208 86.5302 178.497 86.5641C178.057 86.4625 177.752 86.344 177.583 86.2086C177.447 86.1071 177.295 86.0055 177.126 85.9039C177.024 85.8362 176.922 85.7854 176.821 85.7516C176.753 85.6839 176.685 85.6331 176.618 85.5992L176.008 85.3453L176.211 84.6852C176.279 84.4143 176.262 84.2112 176.161 84.0758C176.059 83.9065 175.856 83.6865 175.551 83.4156C175.45 83.3141 175.348 83.2125 175.247 83.111C175.145 83.0094 175.06 82.9078 174.993 82.8063L174.129 81.8414L175.501 81.486C176.347 81.249 176.906 80.9443 177.176 80.5719C177.481 80.1995 177.6 79.5732 177.532 78.693C176.855 78.5576 176.279 78.5406 175.805 78.6422C175.365 78.7438 174.908 78.8623 174.434 78.9977C173.825 79.167 173.198 79.3193 172.555 79.4547C171.946 79.5563 171.269 79.6071 170.524 79.6071C170.253 79.6071 169.999 79.6071 169.762 79.6071C169.525 79.5732 169.271 79.5393 169.001 79.5055L168.493 79.4039C168.425 79.0315 168.357 78.8284 168.29 78.7946C168.222 78.7268 168.154 78.6591 168.086 78.5914C167.917 78.4222 167.731 78.2021 167.528 77.9313C167.359 77.6266 167.325 77.2542 167.426 76.8141C167.257 76.5094 167.156 76.2047 167.122 75.9C166.919 76.3063 166.766 76.7295 166.665 77.1696L166.461 77.6774L165.954 77.7789C165.886 77.8128 165.835 77.8974 165.801 78.0328C165.767 78.1344 165.751 78.219 165.751 78.2867L165.497 79.15C165.429 79.2177 165.361 79.2854 165.294 79.3531C165.226 79.387 165.158 79.4378 165.09 79.5055C165.023 79.8102 164.938 80.1149 164.836 80.4196C164.735 80.7242 164.633 81.012 164.532 81.2828C164.363 81.7229 164.21 82.163 164.075 82.6031C163.973 83.0094 163.939 83.4156 163.973 83.8219L163.77 84.3805C163.601 84.5836 163.415 84.7529 163.211 84.8883C163.008 84.9899 162.805 85.0914 162.602 85.193C162.534 85.2607 162.433 85.3284 162.297 85.3961C162.196 85.43 162.111 85.4638 162.044 85.4977L161.891 86.0563L161.282 86.1578C160.909 86.2255 160.639 86.2763 160.469 86.3102C160.334 86.344 160.165 86.361 159.961 86.361L159.454 86.3102C159.081 86.0055 158.794 85.7685 158.59 85.5992C158.387 85.3961 158.15 85.2099 157.879 85.0406C157.575 84.6344 157.406 84.3297 157.372 84.1266C157.338 83.9235 157.304 83.7373 157.27 83.568C157.202 83.3649 157.169 83.1956 157.169 83.0602C157.135 82.9248 157.084 82.8232 157.016 82.7555L156.356 82.1461L156.915 81.6891L156.965 80.8258C157.642 79.0992 158.353 77.4404 159.098 75.8492C159.877 74.2581 160.672 72.6331 161.485 70.9742C161.756 70.4326 162.01 69.8909 162.247 69.3492C162.517 68.8076 162.788 68.2659 163.059 67.7242C163.025 67.6227 163.008 67.5042 163.008 67.3688C163.008 67.2334 163.042 67.081 163.11 66.9117C163.482 66.3362 163.787 65.8284 164.024 65.3883C164.261 64.9143 164.498 64.4404 164.735 63.9664C165.006 63.3909 165.277 62.8323 165.547 62.2906C165.852 61.749 166.225 61.1904 166.665 60.6149L167.477 60.2594C167.579 60.2255 167.697 60.1917 167.833 60.1578C167.968 60.0901 168.12 60.0563 168.29 60.0563L169.051 60.1578C169.999 59.7177 170.829 59.1084 171.54 58.3297C172.251 57.5172 172.978 56.5524 173.723 55.4352L174.231 54.7242L174.891 55.1305C175.06 55.2321 175.297 55.3336 175.602 55.4352C175.907 55.5029 176.228 55.5875 176.567 55.6891C177.176 55.8245 177.752 55.9768 178.294 56.1461C178.835 56.3154 179.275 56.5693 179.614 56.9078C179.817 57.4495 179.935 57.8558 179.969 58.1266C180.003 58.3974 180.054 58.6683 180.122 58.9391C180.223 59.5146 180.308 60.0901 180.376 60.6656C180.477 61.2412 180.545 61.8844 180.579 62.5953C180.748 63.1709 180.883 63.7464 180.985 64.3219C181.12 64.8636 181.239 65.4222 181.34 65.9977C181.51 66.8102 181.679 67.6058 181.848 68.3844C182.017 69.1292 182.238 69.8401 182.508 70.5172C182.779 70.5172 182.948 70.5341 183.016 70.568C183.185 70.5003 183.355 70.4495 183.524 70.4156C183.727 70.3818 183.947 70.3479 184.184 70.3141L184.743 70.2633L184.946 70.7711C184.98 70.9404 185.149 71.1097 185.454 71.2789C185.894 71.3128 186.215 71.4143 186.419 71.5836C186.622 71.719 186.808 71.8714 186.977 72.0406C187.113 72.1761 187.248 72.2776 187.383 72.3453L188.145 72.65L187.739 73.4117C187.4 74.0211 186.909 74.6136 186.266 75.1891C185.657 75.7308 184.963 76.1878 184.184 76.5602C184.218 76.7633 184.235 76.9664 184.235 77.1696C184.269 77.3388 184.32 77.525 184.387 77.7281C184.489 78.3037 184.573 78.8961 184.641 79.5055C184.709 80.1149 184.709 80.7412 184.641 81.3844L184.54 81.5875ZM169.864 72.8024C170.879 72.7347 171.794 72.667 172.606 72.5992C173.452 72.4977 174.383 72.3453 175.399 72.1422C175.162 71.1266 174.908 70.0771 174.637 68.9938C174.366 67.8766 174.079 66.7763 173.774 65.693L173.469 66.2008C172.792 66.9117 172.132 67.7073 171.489 68.5875C170.879 69.4677 170.355 70.2972 169.915 71.0758C169.711 71.3805 169.508 71.6852 169.305 71.9899C169.102 72.2946 168.916 72.5992 168.747 72.9039C168.95 72.8701 169.136 72.8531 169.305 72.8531C169.508 72.8531 169.695 72.8362 169.864 72.8024ZM200.639 76.9156C200.605 77.3896 200.487 77.8466 200.284 78.2867C200.115 78.693 199.895 79.0992 199.624 79.5055C199.353 79.8779 199.048 80.2503 198.71 80.6227C198.405 80.9612 198.1 81.2659 197.796 81.5367C197.897 81.9768 197.897 82.3154 197.796 82.5524C197.728 82.7555 197.711 83.0771 197.745 83.5172C197.237 84.8714 196.458 85.7685 195.409 86.2086C194.393 86.6826 193.428 86.5979 192.514 85.9547C192.142 85.6839 191.82 85.3453 191.549 84.9391C191.312 84.499 190.974 84.2281 190.534 84.1266C190.635 83.5511 190.585 82.9755 190.381 82.4C190.178 81.8245 189.958 81.5198 189.721 81.486C189.62 80.775 189.467 80.0133 189.264 79.2008C189.061 78.3883 188.875 77.5758 188.706 76.7633C188.536 75.917 188.384 75.1045 188.249 74.3258C188.147 73.5133 188.113 72.7685 188.147 72.0914C188.181 71.7529 188.113 71.4482 187.944 71.1774C187.809 70.9065 187.707 70.5849 187.639 70.2125C187.504 69.4339 187.453 68.6214 187.487 67.775C187.555 66.8948 187.589 66.0654 187.589 65.2867C187.589 64.542 187.538 63.7464 187.436 62.9C187.368 62.0198 187.301 61.1904 187.233 60.4117C187.165 59.5992 187.131 58.8714 187.131 58.2281C187.131 57.5511 187.216 57.0263 187.385 56.6539C187.589 56.2477 187.859 55.9261 188.198 55.6891C188.57 55.4183 188.909 55.1305 189.214 54.8258C189.958 54.8935 190.551 55.1982 190.991 55.7399C191.431 56.2815 191.6 56.7893 191.499 57.2633C192.21 57.7034 192.768 58.2789 193.174 58.9899C193.615 59.667 193.953 60.4456 194.19 61.3258C194.461 62.1722 194.647 63.0862 194.749 64.068C194.85 65.0159 194.935 65.9638 195.003 66.9117C195.07 67.8258 195.138 68.706 195.206 69.5524C195.273 70.3987 195.409 71.1266 195.612 71.736C196.865 69.9417 197.914 68.3505 198.76 66.9625C199.607 65.5406 200.47 64.1865 201.35 62.9C202.23 61.6136 203.212 60.3102 204.296 58.9899C205.379 57.6696 206.784 56.18 208.51 54.5211C208.849 54.555 209.12 54.6227 209.323 54.7242C209.56 54.8258 209.763 54.9104 209.932 54.9781C210.102 55.0459 210.305 55.1136 210.542 55.1813C210.779 55.2151 211.1 55.1982 211.506 55.1305C211.642 55.469 211.743 55.7229 211.811 55.8922C211.879 56.0276 211.93 56.18 211.964 56.3492C212.031 56.4847 212.099 56.6709 212.167 56.9078C212.268 57.1448 212.421 57.4834 212.624 57.9235C212.725 58.025 212.759 58.1604 212.725 58.3297C212.691 58.499 212.658 58.6683 212.624 58.8375C212.624 58.9729 212.624 59.0745 212.624 59.1422C212.624 59.2099 212.708 59.2099 212.878 59.1422C212.776 59.6162 212.59 60.0563 212.319 60.4625C212.082 60.8349 211.98 61.292 212.014 61.8336C211.236 62.8492 210.372 63.8987 209.424 64.9821C208.51 66.0654 207.579 67.1826 206.631 68.3336C205.717 69.4847 204.837 70.7034 203.991 71.9899C203.145 73.2425 202.417 74.5628 201.807 75.9508C201.638 75.9508 201.503 76.0016 201.401 76.1031C201.333 76.2047 201.266 76.3232 201.198 76.4586C201.13 76.5602 201.046 76.6617 200.944 76.7633C200.876 76.8649 200.775 76.9156 200.639 76.9156ZM235.223 57.2633C235.257 57.5003 235.257 57.6865 235.223 57.8219C235.223 57.9235 235.206 58.025 235.173 58.1266C235.173 58.2281 235.173 58.3466 235.173 58.4821C235.173 58.5836 235.206 58.7529 235.274 58.9899C234.563 60.1409 233.734 60.9365 232.786 61.3766C231.872 61.7828 230.873 62.0875 229.79 62.2906C228.706 62.4599 227.589 62.6461 226.438 62.8492C225.321 63.0524 224.204 63.4925 223.087 64.1696C222.647 64.0003 222.24 64.0003 221.868 64.1696C221.529 64.3388 221.022 64.3896 220.344 64.3219C220.141 64.525 219.887 64.6774 219.583 64.7789C219.278 64.8466 218.973 64.9313 218.669 65.0328C218.804 65.3375 218.855 65.6591 218.821 65.9977C218.821 66.3024 218.872 66.5563 218.973 66.7594C220.158 66.861 221.462 66.844 222.884 66.7086C224.339 66.5732 225.761 66.4886 227.149 66.4547C227.183 66.624 227.166 66.7425 227.098 66.8102C227.031 66.844 227.014 66.9287 227.048 67.0641C227.285 67.2334 227.522 67.4534 227.759 67.7242C227.996 67.9612 228.232 68.1982 228.469 68.4352C228.706 68.6722 228.943 68.8753 229.18 69.0446C229.451 69.18 229.756 69.2308 230.094 69.1969C230.23 69.4677 230.315 69.7724 230.348 70.111C230.416 70.4156 230.382 70.7373 230.247 71.0758C229.705 71.4482 229.163 71.8375 228.622 72.2438C228.08 72.6162 227.505 72.9547 226.895 73.2594C226.32 73.5641 225.693 73.818 225.016 74.0211C224.373 74.1904 223.645 74.2581 222.833 74.2242C222.663 74.2242 222.528 74.2242 222.426 74.2242C222.359 74.2242 222.257 74.1735 222.122 74.0719C221.851 74.2412 221.462 74.292 220.954 74.2242C220.48 74.1565 220.107 74.2073 219.837 74.3766C219.464 74.2073 219.007 74.1396 218.466 74.1735C217.958 74.1735 217.501 74.1058 217.094 73.9703C216.553 74.6813 216.062 75.443 215.622 76.2555C215.182 77.068 214.792 77.9313 214.454 78.8453C215.605 79.0146 216.553 79.0823 217.298 79.0485C218.076 79.0146 218.804 78.9638 219.481 78.8961C220.158 78.7946 220.852 78.7099 221.563 78.6422C222.274 78.5406 223.171 78.5068 224.255 78.5406C224.932 78.1683 225.727 77.9313 226.641 77.8297C227.589 77.6943 228.453 77.4912 229.231 77.2203C229.502 77.3219 229.739 77.5081 229.942 77.7789C230.145 78.0159 230.331 78.2529 230.501 78.4899C230.704 78.693 230.907 78.8792 231.11 79.0485C231.313 79.2177 231.567 79.2854 231.872 79.2516C232.007 79.387 232.092 79.5563 232.126 79.7594C232.193 79.9287 232.244 80.0979 232.278 80.2672C232.312 80.4365 232.363 80.5888 232.43 80.7242C232.532 80.8258 232.684 80.8597 232.887 80.8258C232.38 81.943 231.787 82.8063 231.11 83.4156C230.467 83.9912 229.722 84.4313 228.876 84.736C228.029 85.0406 227.081 85.2776 226.032 85.4469C225.016 85.6162 223.882 85.8193 222.63 86.0563C222.325 86.124 222.071 86.1071 221.868 86.0055C221.665 85.9378 221.428 85.9039 221.157 85.9039C220.378 86.0732 219.447 86.2255 218.364 86.361C217.281 86.4964 216.18 86.5472 215.063 86.5133C213.946 86.4795 212.88 86.3271 211.864 86.0563C210.848 85.8193 210.019 85.3792 209.376 84.736C209.105 84.499 208.919 84.2281 208.817 83.9235C208.749 83.5849 208.529 83.331 208.157 83.1617C208.123 82.7216 208.055 82.2308 207.954 81.6891C207.852 81.1474 207.751 80.5888 207.649 80.0133C207.548 79.4039 207.463 78.8115 207.395 78.236C207.361 77.6604 207.395 77.1357 207.497 76.6617C207.598 76.1539 207.801 75.6969 208.106 75.2906C208.445 74.8844 208.563 74.4443 208.462 73.9703C208.631 73.9365 208.732 73.8518 208.766 73.7164C208.8 73.5472 208.936 73.4795 209.173 73.5133C209.376 72.9039 209.596 72.3284 209.833 71.7867C210.07 71.2451 210.307 70.7203 210.544 70.2125C210.815 69.7047 211.068 69.1969 211.305 68.6891C211.576 68.1474 211.83 67.555 212.067 66.9117C211.593 66.4716 211.238 65.9977 211.001 65.4899C210.798 64.9482 210.645 64.4235 210.544 63.9156C210.442 63.374 210.357 62.8323 210.29 62.2906C210.222 61.7151 210.104 61.1396 209.934 60.5641C210.273 60.0563 210.679 59.65 211.153 59.3453C211.661 59.0068 212.203 58.736 212.778 58.5328C213.354 58.3297 213.98 58.1604 214.657 58.025C215.334 57.8896 216.045 57.7373 216.79 57.568C218.144 57.1279 219.346 56.7893 220.395 56.5524C221.479 56.3154 222.528 56.1292 223.544 55.9938C224.593 55.8245 225.676 55.6722 226.794 55.5367C227.911 55.4013 229.18 55.1982 230.602 54.9274C230.907 55.2321 231.195 55.3844 231.466 55.3844C231.601 55.0797 231.753 54.9951 231.923 55.1305C232.126 55.2321 232.21 55.1305 232.176 54.8258C232.515 55.4013 232.938 55.8922 233.446 56.2985C233.988 56.6709 234.58 56.9925 235.223 57.2633Z" fill="#F4F4F8"/>
</svg>
